<svg xmlns="http://www.w3.org/2000/svg" version="1.1" xmlns:xlink="http://www.w3.org/1999/xlink" xmlns:svgjs="http://svgjs.dev/svgjs" width="2500" height="6000" preserveAspectRatio="none" viewBox="0 0 2500 6000"><g mask="url(&quot;#SvgjsMask1060&quot;)" fill="none"><rect width="2500" height="6000" x="0" y="0" fill="rgba(10, 25, 47, 1)"></rect><path d="M0 67.77C8.27 13.55 38.81 6.13 95.34 0C351.31 -27.76 360.17 0 625 0C937.5 0 937.5 0 1250 0C1458.34 0 1666.67 -45.76 1666.67 0C1666.67 50.4 1376.34 32.72 1250 192.31C1128.95 345.22 1282.47 444.45 1171.88 625C969.97 954.64 941.73 1007.25 625 1212.69C459.95 1319.75 325.09 1120.37 208.33 1250C26.8 1451.53 -67.75 1622.58 28.41 1875C140.59 2169.46 334.45 2100.8 625 2343.75C708.17 2413.3 681.2 2452.4 775.86 2500C993.7 2609.55 1024.77 2658.05 1250 2658.05C1372.72 2658.05 1471.77 2606.63 1471.77 2500C1471.77 2305.83 1384.09 2261.21 1250 2056.45C1179.45 1948.71 1062.5 1975.78 1062.5 1875C1062.5 1744.43 1178.25 1744.94 1250 1593.75C1326.56 1432.44 1261.41 1397.85 1359.13 1250C1573.91 925.05 1556.14 822.83 1875 648.15C2126.58 510.33 2343.7 474.49 2500 625C2656.2 775.41 2500 937.5 2500 1250C2500 1562.5 2500 1562.5 2500 1875C2500 2187.5 2500 2187.5 2500 2500C2500 2812.5 2500 2812.5 2500 3125C2500 3437.5 2500 3437.5 2500 3750C2500 4062.5 2500 4062.5 2500 4375C2500 4537.03 2558.02 4558.5 2500 4699.07C2429.05 4871 2242.06 4858.8 2242.06 5000C2242.06 5122.11 2440.43 5081.35 2500 5225.69C2569.4 5393.85 2500 5425.34 2500 5625C2500 5924.48 2508.73 5927.25 2500 6223.96C2499.54 6239.75 2497.22 6249.35 2481.62 6250C2184.72 6262.37 2178.31 6250 1875 6250C1562.5 6250 1562.5 6250 1250 6250C937.5 6250 937.5 6250 625 6250C312.5 6250 156.25 6406.25 0 6250C-156.25 6093.75 0 5937.5 0 5625C0 5393.15 -117.21 5307.8 0 5161.29C132.79 4995.3 500 5074.64 500 5000C500 4926.42 128.48 5025.46 0 4864.86C-121.52 4712.96 0 4619.93 0 4375C0 4062.5 0 4062.5 0 3750C0 3563.6 -73.04 3529.62 0 3377.19C76.7 3217.12 299.48 3251.1 299.48 3125C299.48 2998.9 76.7 3032.88 0 2872.81C-73.04 2720.38 0 2686.4 0 2500C0 2187.5 0 2187.5 0 1875C0 1562.5 0 1562.5 0 1250C0 937.5 0 937.5 0 625C0 346.38 -39.4 326.05 0 67.77" stroke="rgba(204, 214, 247, 1)" stroke-width="2"></path><path d="M2500 625C2323.14 625 1892.61 184.16 1892.61 0C1892.61 -128.34 2350.32 -154.02 2500 0C2654.02 158.48 2626.83 625 2500 625" stroke="rgba(89, 198, 186, 1)" stroke-width="2"></path><path d="M625 3683.04C597.35 3683.04 584.33 3709.68 574.32 3750C498.4 4055.66 439.6 4067.05 453.13 4375C464.94 4643.98 533.59 4903.85 625 4903.85C717.74 4903.85 805.72 4645.68 821.43 4375C839.2 4068.76 777.49 4051.28 691.96 3750C679.27 3705.3 656.17 3683.04 625 3683.04" stroke="rgba(89, 198, 186, 1)" stroke-width="2"></path><path d="M1250 4829.55C1010.4 4829.55 773.76 4829.09 738.64 5000C692.03 5226.81 906.62 5316.09 1086.54 5625C1162.3 5755.08 1159.72 5877.98 1250 5877.98C1349.87 5877.98 1431.28 5777.63 1466.84 5625C1533.56 5338.64 1530.58 5278.92 1454.55 5000C1422.16 4881.2 1368.36 4829.55 1250 4829.55" stroke="rgba(204, 214, 247, 1)" stroke-width="2"></path><path d="M0 256.02C98.14 85.72 164.77 80.04 360.17 0C477.27 -47.97 492.59 0 625 0C794.84 0 906.6 -110.03 964.67 0C1071.53 202.47 1050.56 349.04 954.86 625C880.73 838.78 832.67 886.97 625 979.48C355.24 1099.65 186.43 1156.09 0 1050.35C-126.07 978.85 0 837.67 0 625C0 440.51 -81.95 398.22 0 256.02" stroke="rgba(204, 214, 247, 1)" stroke-width="2"></path><path d="M2500 398.55C2387.22 398.55 2112.68 117.43 2112.68 0C2112.68 -81.84 2404.55 -98.21 2500 0C2598.21 101.06 2580.88 398.55 2500 398.55" stroke="rgba(204, 214, 247, 1)" stroke-width="2"></path><path d="M0 2329.55C63.78 2329.55 208.33 2427.51 208.33 2500C208.33 2562.08 72.94 2598.68 0 2598.68C-31.22 2598.68 0 2549.34 0 2500C0 2414.77 -40.39 2329.55 0 2329.55" stroke="rgba(89, 198, 186, 1)" stroke-width="2"></path><path d="M0 3651.32C49.22 3651.32 123.37 3669.54 152.03 3750C252.27 4031.38 305.35 4092.4 257.81 4375C229.34 4544.26 74.34 4653.72 0 4653.72C-54.57 4653.72 0 4514.36 0 4375C0 4062.5 0 4062.5 0 3750C0 3700.66 -26.8 3651.32 0 3651.32" stroke="rgba(204, 214, 247, 1)" stroke-width="2"></path><path d="M0 5413.31C234.41 5290.78 363.97 5233 625 5298.3C787.05 5338.84 737.88 5460.13 846.15 5625C1050.38 5935.98 1310.1 6080.16 1250 6250C1199.52 6392.66 937.5 6250 625 6250C312.5 6250 156.25 6406.25 0 6250C-156.25 6093.75 0 5937.5 0 5625C0 5519.16 -78.09 5454.13 0 5413.31" stroke="rgba(89, 198, 186, 1)" stroke-width="2"></path><path d="M0 444.28C252.9 191.38 423.21 -49.42 625 0C792.13 40.94 737.85 329.06 737.85 625C737.85 702.19 701.71 724.61 625 746.27C332.79 828.78 234.94 878.92 0 833.33C-77.56 818.28 0 729.16 0 625C0 534.64 -59.6 503.88 0 444.28" stroke="rgba(89, 198, 186, 1)" stroke-width="2"></path><path d="M2500 172.1C2451.3 172.1 2332.75 50.71 2332.75 0C2332.75 -35.34 2458.79 -42.41 2500 0C2542.41 43.64 2534.92 172.1 2500 172.1" stroke="rgba(89, 198, 186, 1)" stroke-width="2"></path><path d="M1855.16 1250C1855.16 1235.37 1860.04 1228.4 1875 1226.85C2182.46 1194.92 2217.67 1172.58 2500 1183.04C2530.17 1184.16 2500 1216.52 2500 1250C2500 1339.28 2569.44 1408.73 2500 1428.57C2256.94 1498.01 2125.43 1497.92 1875 1428.57C1803.01 1408.63 1855.16 1336.23 1855.16 1250" stroke="rgba(204, 214, 247, 1)" stroke-width="2"></path><path d="M1015.63 3125C1015.63 3050.13 1138.31 3017.24 1250 3017.24C1328.74 3017.24 1396.48 3057.11 1396.48 3125C1396.48 3228.18 1336.59 3359.38 1250 3359.38C1146.16 3359.38 1015.63 3221.2 1015.63 3125" stroke="rgba(89, 198, 186, 1)" stroke-width="2"></path><path d="M2339.02 3125C2339.02 3026.79 2454.18 2938.6 2500 2938.6C2534.67 2938.6 2500 3031.8 2500 3125C2500 3245.74 2536.56 3366.48 2500 3366.48C2456.07 3366.48 2339.02 3240.73 2339.02 3125" stroke="rgba(89, 198, 186, 1)" stroke-width="2"></path><path d="M1808.04 3750C1831.97 3720.8 1841.78 3713.94 1875 3713.94C1906.51 3713.94 1925.86 3716.86 1937.5 3750C2041.93 4047.39 2126.66 4082.23 2107.14 4375C2095.41 4550.98 2023.44 4687.5 1875 4687.5C1636.54 4687.5 1348.18 4582.87 1333.33 4375C1314.7 4114.12 1561.13 4051.33 1808.04 3750" stroke="rgba(89, 198, 186, 1)" stroke-width="2"></path><path d="M0 4166.67C15.96 4166.67 62.5 4278.07 62.5 4375C62.5 4416.02 18.02 4442.57 0 4442.57C-13.23 4442.57 0 4408.78 0 4375C0 4270.83 -15.29 4166.67 0 4166.67" stroke="rgba(89, 198, 186, 1)" stroke-width="2"></path><path d="M0 5714.29C109.34 5714.29 394.74 6081.88 394.74 6250C394.74 6349.73 83.73 6363.64 0 6250C-113.64 6095.78 -88.03 5714.29 0 5714.29" stroke="rgba(89, 198, 186, 1)" stroke-width="2"></path><path d="M1631.1 6250C1631.1 6160.24 1769.94 5955.88 1875 5955.88C1965.42 5955.88 2022.06 6148.38 2022.06 6250C2022.06 6295.44 1948.53 6250 1875 6250C1753.05 6250 1631.1 6307.3 1631.1 6250" stroke="rgba(204, 214, 247, 1)" stroke-width="2"></path></g><defs><mask id="SvgjsMask1060"><rect width="2500" height="6000" fill="#ffffff"></rect></mask></defs></svg>